<svg height="473" width="630" viewBox="0 0 640 480" xmlns="http://www.w3.org/2000/svg" version="1.2">
	<title>inr-svg</title>
	<style>
		.s0 { fill: #ff9933 } 
		.s1 { fill: #ffffff } 
		.s2 { fill: #128807 } 
		.s3 { fill: #000088 } 
	</style>
	<path d="m0 0h640v160h-640z" class="s0"></path>
	<path d="m0 160h640v160h-640z" class="s1"></path>
	<path d="m0 320h640v160h-640z" class="s2"></path>
	<g>
		<path d="m320 304c-35.4 0-64-28.6-64-64 0-35.4 28.6-64 64-64 35.4 0 64 28.6 64 64 0 35.4-28.6 64-64 64z" class="s3"></path>
		<path d="m320 296c-31 0-56-25-56-56 0-31 25-56 56-56 31 0 56 25 56 56 0 31-25 56-56 56z" class="s1"></path>
		<path d="m320 251.2c-6.2 0-11.2-5-11.2-11.2 0-6.2 5-11.2 11.2-11.2 6.2 0 11.2 5 11.2 11.2 0 6.2-5 11.2-11.2 11.2z" class="s3"></path>
		<g id="d">
			<g id="c">
				<g id="b">
					<g id="a">
						<path d="m375.1 250.2c-1.5-0.2-2.6-1.7-2.4-3.2 0.2-1.6 1.6-2.7 3.2-2.5 1.6 0.2 2.7 1.6 2.5 3.2-0.2 1.6-1.7 2.7-3.3 2.5z" class="s3"></path>
						<path d="m320 296l1.9-33.6-1.9-16-1.9 16z" class="s3"></path>
					</g>
					<g id="a">
						<path d="m370.6 264.1c-1.4-0.6-2.1-2.3-1.5-3.8 0.6-1.4 2.3-2.1 3.7-1.5 1.5 0.6 2.2 2.3 1.6 3.8-0.6 1.4-2.3 2.1-3.8 1.5z" class="s3"></path>
						<path d="m305.5 294.1l10.6-32 2.2-15.9-6 14.9z" class="s3"></path>
					</g>
				</g>
				<g id="b">
					<g id="a">
						<path d="m362.7 276.4c-1.3-1-1.5-2.8-0.6-4 1-1.3 2.8-1.5 4.1-0.6 1.2 1 1.5 2.8 0.5 4.1-1 1.2-2.8 1.5-4 0.5z" class="s3"></path>
						<path d="m292 288.5l18.5-28.1 6.3-14.9-9.7 12.9z" class="s3"></path>
					</g>
					<g id="a">
						<path d="m351.8 286.2c-1-1.3-0.7-3.1 0.5-4 1.3-1 3.1-0.8 4.1 0.5 0.9 1.3 0.7 3.1-0.6 4-1.2 1-3 0.8-4-0.5z" class="s3"></path>
						<path d="m280.4 279.6l25.1-22.4 10-12.7-12.7 10z" class="s3"></path>
					</g>
				</g>
			</g>
			<g id="c">
				<g id="b">
					<g id="a">
						<path d="m338.8 292.8c-0.7-1.4 0-3.1 1.5-3.7 1.5-0.6 3.2 0.1 3.8 1.5 0.6 1.5-0.1 3.2-1.6 3.8-1.5 0.6-3.1-0.1-3.7-1.6z" class="s3"></path>
						<path d="m271.5 268l30.1-15.1 12.9-9.7-14.9 6.3z" class="s3"></path>
					</g>
					<g id="a">
						<path d="m324.4 295.9c-0.2-1.6 0.9-3 2.5-3.2 1.6-0.2 3 0.9 3.2 2.4 0.3 1.6-0.9 3.1-2.4 3.3-1.6 0.2-3.1-0.9-3.3-2.5z" class="s3"></path>
						<path d="m265.9 254.5l33-6.8 14.9-6-15.9 2.2z" class="s3"></path>
					</g>
				</g>
				<g id="b">
					<g id="a">
						<path d="m309.8 295.1c0.2-1.5 1.7-2.6 3.2-2.4 1.6 0.2 2.7 1.6 2.5 3.2-0.2 1.6-1.6 2.7-3.2 2.5-1.6-0.2-2.7-1.7-2.5-3.3z" class="s3"></path>
						<path d="m264 240l33.6 1.9 16-1.9-16-1.9z" class="s3"></path>
					</g>
					<g id="a">
						<path d="m295.9 290.6c0.6-1.4 2.3-2.1 3.8-1.5 1.4 0.6 2.1 2.3 1.5 3.7-0.6 1.5-2.3 2.2-3.8 1.6-1.4-0.6-2.1-2.3-1.5-3.8z" class="s3"></path>
						<path d="m265.9 225.5l32 10.6 15.9 2.2-14.9-6z" class="s3"></path>
					</g>
				</g>
			</g>
		</g>
		<g id="d">
			<g id="c">
				<g id="b">
					<g id="a">
						<path d="m283.6 282.7c1-1.3 2.8-1.5 4-0.6 1.3 1 1.5 2.8 0.6 4.1-1 1.2-2.8 1.5-4.1 0.5-1.2-1-1.5-2.8-0.5-4z" class="s3"></path>
						<path d="m271.5 212l28.1 18.5 14.9 6.3-12.9-9.7z" class="s3"></path>
					</g>
					<g id="a">
						<path d="m273.8 271.8c1.3-1 3.1-0.7 4 0.5 1 1.3 0.8 3.1-0.5 4.1-1.3 0.9-3.1 0.7-4-0.6-1-1.2-0.8-3 0.5-4z" class="s3"></path>
						<path d="m280.4 200.4l22.4 25.1 12.7 10-10-12.7z" class="s3"></path>
					</g>
				</g>
				<g id="b">
					<g id="a">
						<path d="m267.2 258.8c1.4-0.7 3.1 0 3.7 1.5 0.6 1.5-0.1 3.2-1.5 3.8-1.5 0.6-3.2-0.1-3.8-1.6-0.6-1.5 0.1-3.1 1.6-3.7z" class="s3"></path>
						<path d="m292 191.5l15.1 30.1 9.7 12.9-6.3-14.9z" class="s3"></path>
					</g>
					<g id="a">
						<path d="m264.1 244.4c1.6-0.2 3 0.9 3.2 2.5 0.2 1.6-0.9 3-2.4 3.2-1.6 0.3-3.1-0.9-3.3-2.4-0.2-1.6 0.9-3.1 2.5-3.3z" class="s3"></path>
						<path d="m305.5 185.9l6.8 33 6 14.9-2.2-15.9z" class="s3"></path>
					</g>
				</g>
			</g>
			<g id="c">
				<g id="b">
					<g id="a">
						<path d="m264.9 229.8c1.5 0.2 2.6 1.7 2.4 3.2-0.2 1.6-1.6 2.7-3.2 2.5-1.6-0.2-2.7-1.6-2.5-3.2 0.2-1.6 1.7-2.7 3.3-2.5z" class="s3"></path>
						<path d="m320 184l-1.9 33.6 1.9 16 1.9-16z" class="s3"></path>
					</g>
					<g id="a">
						<path d="m269.4 215.9c1.4 0.6 2.1 2.3 1.5 3.8-0.6 1.4-2.3 2.1-3.7 1.5-1.5-0.6-2.2-2.3-1.6-3.8 0.6-1.4 2.3-2.1 3.8-1.5z" class="s3"></path>
						<path d="m334.5 185.9l-10.6 32-2.2 15.9 6-14.9z" class="s3"></path>
					</g>
				</g>
				<g id="b">
					<g id="a">
						<path d="m277.3 203.6c1.3 1 1.5 2.8 0.6 4-1 1.3-2.8 1.5-4.1 0.6-1.2-1-1.5-2.8-0.5-4.1 1-1.2 2.8-1.5 4-0.5z" class="s3"></path>
						<path d="m348 191.5l-18.5 28.1-6.3 14.9 9.7-12.9z" class="s3"></path>
					</g>
					<g id="a">
						<path d="m288.2 193.8c1 1.3 0.7 3.1-0.5 4-1.3 1-3.1 0.8-4.1-0.5-0.9-1.3-0.7-3.1 0.6-4 1.2-1 3-0.8 4 0.5z" class="s3"></path>
						<path d="m359.6 200.4l-25.1 22.4-10 12.7 12.7-10z" class="s3"></path>
					</g>
				</g>
			</g>
		</g>
		<g id="d">
			<g id="c">
				<g id="b">
					<g id="a">
						<path d="m301.2 187.2c0.7 1.4 0 3.1-1.5 3.7-1.5 0.6-3.2-0.1-3.8-1.5-0.6-1.5 0.1-3.2 1.6-3.8 1.5-0.6 3.1 0.1 3.7 1.6z" class="s3"></path>
						<path d="m368.5 212l-30.1 15.1-12.9 9.7 14.9-6.3z" class="s3"></path>
					</g>
					<g id="a">
						<path d="m315.6 184.1c0.2 1.6-0.9 3-2.5 3.2-1.6 0.2-3-0.9-3.2-2.4-0.3-1.6 0.9-3.1 2.4-3.3 1.6-0.2 3.1 0.9 3.3 2.5z" class="s3"></path>
						<path d="m374.1 225.5l-33 6.8-14.9 6 15.9-2.2z" class="s3"></path>
					</g>
				</g>
				<g id="b">
					<g id="a">
						<path d="m330.2 184.9c-0.2 1.5-1.7 2.6-3.2 2.4-1.6-0.2-2.7-1.6-2.5-3.2 0.2-1.6 1.6-2.7 3.2-2.5 1.6 0.2 2.7 1.7 2.5 3.3z" class="s3"></path>
						<path d="m376 240l-33.6-1.9-16 1.9 16 1.9z" class="s3"></path>
					</g>
					<g id="a">
						<path d="m344.1 189.4c-0.6 1.4-2.3 2.1-3.8 1.5-1.4-0.6-2.1-2.3-1.5-3.7 0.6-1.5 2.3-2.2 3.8-1.6 1.4 0.6 2.1 2.3 1.5 3.8z" class="s3"></path>
						<path d="m374.1 254.5l-32-10.6-15.9-2.2 14.9 6z" class="s3"></path>
					</g>
				</g>
			</g>
			<g id="c">
				<g id="b">
					<g id="a">
						<path d="m356.4 197.3c-1 1.3-2.8 1.5-4 0.6-1.3-1-1.5-2.8-0.6-4.1 1-1.2 2.8-1.5 4.1-0.5 1.2 1 1.5 2.8 0.5 4z" class="s3"></path>
						<path d="m368.5 268l-28.1-18.5-14.9-6.3 12.9 9.7z" class="s3"></path>
					</g>
					<g id="a">
						<path d="m366.2 208.2c-1.3 1-3.1 0.7-4-0.5-1-1.3-0.8-3.1 0.5-4.1 1.3-0.9 3.1-0.7 4 0.6 1 1.2 0.8 3-0.5 4z" class="s3"></path>
						<path d="m359.6 279.6l-22.4-25.1-12.7-10 10 12.7z" class="s3"></path>
					</g>
				</g>
				<g id="b">
					<g id="a">
						<path d="m372.8 221.2c-1.4 0.7-3.1 0-3.7-1.5-0.6-1.5 0.1-3.2 1.5-3.8 1.5-0.6 3.2 0.1 3.8 1.6 0.6 1.5-0.1 3.1-1.6 3.7z" class="s3"></path>
						<path d="m348 288.5l-15.1-30.1-9.7-12.9 6.3 14.9z" class="s3"></path>
					</g>
					<g id="a">
						<path d="m375.9 235.6c-1.6 0.2-3-0.9-3.2-2.5-0.2-1.6 0.9-3 2.4-3.2 1.6-0.3 3.1 0.9 3.3 2.4 0.2 1.6-0.9 3.1-2.5 3.3z" class="s3"></path>
						<path d="m334.5 294.1l-6.8-33-6-14.9 2.2 15.9z" class="s3"></path>
					</g>
				</g>
			</g>
		</g>
	</g>
</svg>